<?xml version="1.0" encoding="UTF-8" standalone="no"?><svg xmlns="http://www.w3.org/2000/svg" xmlns:xlink="http://www.w3.org/1999/xlink" contentScriptType="application/ecmascript" contentStyleType="text/css" height="188px" preserveAspectRatio="none" style="width:616px;height:188px;background:#FFFFFF;" version="1.1" viewBox="0 0 616 188" width="616px" zoomAndPan="magnify"><defs><filter height="300%" id="f15x99lvuysk4t" width="300%" x="-1" y="-1"><feGaussianBlur result="blurOut" stdDeviation="2.0"/><feColorMatrix in="blurOut" result="blurOut2" type="matrix" values="0 0 0 0 0 0 0 0 0 0 0 0 0 0 0 0 0 0 .4 0"/><feOffset dx="4.0" dy="4.0" in="blurOut2" result="blurOut3"/><feBlend in="SourceGraphic" in2="blurOut3" mode="normal"/></filter></defs><g><!--MD5=[241b36de05534b6660b3ddf6e8766aa9]
entity Broker--><polygon fill="#FEFECE" filter="url(#f15x99lvuysk4t)" points="20.0418,16,30.0418,6,106.0418,6,106.0418,42.2969,96.0418,52.2969,20.0418,52.2969,20.0418,16" style="stroke:#000000;stroke-width:1.5;"/><line style="stroke:#000000;stroke-width:1.5;" x1="96.0418" x2="106.0418" y1="16" y2="6"/><line style="stroke:#000000;stroke-width:1.5;" x1="20.0418" x2="96.0418" y1="16" y2="16"/><line style="stroke:#000000;stroke-width:1.5;" x1="96.0418" x2="96.0418" y1="16" y2="52.2969"/><text fill="#000000" font-family="sans-serif" font-size="14" lengthAdjust="spacing" textLength="46" x="35.0418" y="38.9951">Broker</text><!--MD5=[bf7d798de3971d68030e0d3592570cef]
entity topic_1--><polygon fill="#FEFECE" filter="url(#f15x99lvuysk4t)" points="343.0418,145,353.0418,135,433.0418,135,433.0418,171.2969,423.0418,181.2969,343.0418,181.2969,343.0418,145" style="stroke:#000000;stroke-width:1.5;"/><line style="stroke:#000000;stroke-width:1.5;" x1="423.0418" x2="433.0418" y1="145" y2="135"/><line style="stroke:#000000;stroke-width:1.5;" x1="343.0418" x2="423.0418" y1="145" y2="145"/><line style="stroke:#000000;stroke-width:1.5;" x1="423.0418" x2="423.0418" y1="145" y2="181.2969"/><text fill="#000000" font-family="sans-serif" font-size="14" lengthAdjust="spacing" textLength="50" x="358.0418" y="167.9951">topic_1</text><!--MD5=[0ffcc33d936b7fa9b68e601dafc209bd]
entity topic_2--><polygon fill="#FEFECE" filter="url(#f15x99lvuysk4t)" points="123.0418,145,133.0418,135,213.0418,135,213.0418,171.2969,203.0418,181.2969,123.0418,181.2969,123.0418,145" style="stroke:#000000;stroke-width:1.5;"/><line style="stroke:#000000;stroke-width:1.5;" x1="203.0418" x2="213.0418" y1="145" y2="135"/><line style="stroke:#000000;stroke-width:1.5;" x1="123.0418" x2="203.0418" y1="145" y2="145"/><line style="stroke:#000000;stroke-width:1.5;" x1="203.0418" x2="203.0418" y1="145" y2="181.2969"/><text fill="#000000" font-family="sans-serif" font-size="14" lengthAdjust="spacing" textLength="50" x="138.0418" y="167.9951">topic_2</text><!--MD5=[476911261809eb5bdb05160c844e1bd1]
entity Observer_1--><ellipse cx="441.0418" cy="29" fill="#FEFECE" filter="url(#f15x99lvuysk4t)" rx="8" ry="8" style="stroke:#A80036;stroke-width:1.5;"/><text fill="#000000" font-family="sans-serif" font-size="14" lengthAdjust="spacing" textLength="79" x="401.5418" y="58.9951">Observer_1</text><!--MD5=[207dfc9b6c9ff111335f963f327d2251]
entity Observer_2--><ellipse cx="271.0418" cy="29" fill="#FEFECE" filter="url(#f15x99lvuysk4t)" rx="8" ry="8" style="stroke:#A80036;stroke-width:1.5;"/><text fill="#000000" font-family="sans-serif" font-size="14" lengthAdjust="spacing" textLength="79" x="231.5418" y="58.9951">Observer_2</text><!--MD5=[59b5f4f5b4ef67f133af65296092edea]
entity Observer_3--><ellipse cx="570.0418" cy="29" fill="#FEFECE" filter="url(#f15x99lvuysk4t)" rx="8" ry="8" style="stroke:#A80036;stroke-width:1.5;"/><text fill="#000000" font-family="sans-serif" font-size="14" lengthAdjust="spacing" textLength="79" x="530.5418" y="58.9951">Observer_3</text><!--MD5=[27ca3cd17b51aaf8a73bae4a66e08915]
link Broker to topic_1--><path d="M80.3977,52.1813 C94.5525,69.4048 116.0718,92.0695 140.0418,105 C173.6328,123.1204 275.4743,141.0061 337.714,150.6638 " fill="none" id="Broker-to-topic_1" style="stroke:#A80036;stroke-width:1.0;stroke-dasharray:7.0,7.0;"/><polygon fill="#A80036" points="342.8668,151.4586,334.582,146.133,337.9253,150.6962,333.3621,154.0395,342.8668,151.4586" style="stroke:#A80036;stroke-width:1.0;"/><text fill="#000000" font-family="sans-serif" font-size="13" lengthAdjust="spacing" textLength="63" x="141.0418" y="101.0669">Fire Event</text><!--MD5=[9c6f0c31150849ef251d73b887a97ded]
link Broker to topic_2--><path d="M34.7108,52.2189 C19.4528,67.5888 6,87.9739 18.0418,105 C29.947,121.8329 78.9829,137.0582 117.7919,146.8258 " fill="none" id="Broker-to-topic_2" style="stroke:#A80036;stroke-width:1.0;stroke-dasharray:7.0,7.0;"/><polygon fill="#A80036" points="122.9531,148.1081,115.1833,142.0558,118.1007,146.9024,113.2541,149.8198,122.9531,148.1081" style="stroke:#A80036;stroke-width:1.0;"/><text fill="#000000" font-family="sans-serif" font-size="13" lengthAdjust="spacing" textLength="63" x="19.0418" y="101.0669">Fire Event</text><!--MD5=[70ae0180dfe3a30515bdd4cb1900f1cf]
reverse link Observer_1 to topic_1--><path d="M435.2217,43.166 C426.1546,65.2348 408.5636,108.0509 397.6109,134.7091 " fill="none" id="Observer_1-backto-topic_1" style="stroke:#A80036;stroke-width:1.0;stroke-dasharray:7.0,7.0;"/><polygon fill="#A80036" points="437.2302,38.2774,430.11,45.082,435.3301,42.9023,437.5098,48.1223,437.2302,38.2774" style="stroke:#A80036;stroke-width:1.0;"/><text fill="#000000" font-family="sans-serif" font-size="13" lengthAdjust="spacing" textLength="63" x="417.0418" y="101.0669">Fire Event</text><!--MD5=[c820492061877d50c5af64d3321aca27]
reverse link Observer_2 to topic_1--><path d="M282.6805,42.4767 C295.9391,57.7643 318.3235,83.3793 338.0418,105 C347.0774,114.9073 357.2028,125.6968 365.9663,134.9394 " fill="none" id="Observer_2-backto-topic_1" style="stroke:#A80036;stroke-width:1.0;stroke-dasharray:7.0,7.0;"/><polygon fill="#A80036" points="279.1927,38.4505,282.0623,47.872,282.4666,42.2296,288.1089,42.6339,279.1927,38.4505" style="stroke:#A80036;stroke-width:1.0;"/><text fill="#000000" font-family="sans-serif" font-size="13" lengthAdjust="spacing" textLength="63" x="339.0418" y="101.0669">Fire Event</text><!--MD5=[cbb0e56fea7d91b2a7a68c17e8b95de2]
reverse link Observer_3 to topic_1--><path d="M558.1918,42.1169 C543.1731,58.2448 515.9832,85.831 489.0418,105 C471.6967,117.3412 451.109,128.6634 433.0605,137.6463 " fill="none" id="Observer_3-backto-topic_1" style="stroke:#A80036;stroke-width:1.0;stroke-dasharray:7.0,7.0;"/><polygon fill="#A80036" points="561.7404,38.2755,552.6951,42.1721,558.3476,41.9482,558.5714,47.6006,561.7404,38.2755" style="stroke:#A80036;stroke-width:1.0;"/><text fill="#000000" font-family="sans-serif" font-size="13" lengthAdjust="spacing" textLength="63" x="511.0418" y="101.0669">Fire Event</text><!--MD5=[6eda6c6e2ef3e9a9ee595529bbdbe393]
reverse link Observer_2 to topic_2--><path d="M260.3921,42.338 C242.9777,64.1483 208.1931,107.7134 186.6384,134.7091 " fill="none" id="Observer_2-backto-topic_2" style="stroke:#A80036;stroke-width:1.0;stroke-dasharray:7.0,7.0;"/><polygon fill="#A80036" points="263.6343,38.2774,254.8929,42.8147,260.5145,42.1847,261.1446,47.8064,263.6343,38.2774" style="stroke:#A80036;stroke-width:1.0;"/><text fill="#000000" font-family="sans-serif" font-size="13" lengthAdjust="spacing" textLength="63" x="223.0418" y="101.0669">Fire Event</text><!--MD5=[dbc4ed7322f3236d7e52efc45acb65ae]
@startuml
node Broker 

node topic_1
node topic_2

Broker -[dashed]-> topic_1  :  Fire Event
Broker -[dashed]-> topic_2  :  Fire Event

Observer_1 <-[dashed]- topic_1 : Fire Event
Observer_2 <-[dashed]- topic_1 : Fire Event
Observer_3 <-[dashed]- topic_1 : Fire Event

Observer_2 <-[dashed]- topic_2 : Fire Event
@enduml

PlantUML version 1.2021.7(Sun May 23 12:40:07 UTC 2021)
(GPL source distribution)
Java Runtime: OpenJDK Runtime Environment
JVM: OpenJDK 64-Bit Server VM
Default Encoding: UTF-8
Language: en
Country: null
--></g></svg>