<?xml version="1.0" encoding="UTF-8" standalone="no"?><svg xmlns="http://www.w3.org/2000/svg" xmlns:xlink="http://www.w3.org/1999/xlink" contentScriptType="application/ecmascript" contentStyleType="text/css" height="359px" preserveAspectRatio="none" style="width:413px;height:359px;background:#FFFFFF;" version="1.1" viewBox="0 0 413 359" width="413px" zoomAndPan="magnify"><defs><filter height="300%" id="fg5oc4u2nh7wj" width="300%" x="-1" y="-1"><feGaussianBlur result="blurOut" stdDeviation="2.0"/><feColorMatrix in="blurOut" result="blurOut2" type="matrix" values="0 0 0 0 0 0 0 0 0 0 0 0 0 0 0 0 0 0 .4 0"/><feOffset dx="4.0" dy="4.0" in="blurOut2" result="blurOut3"/><feBlend in="SourceGraphic" in2="blurOut3" mode="normal"/></filter></defs><g><line style="stroke:#A80036;stroke-width:1.0;stroke-dasharray:5.0,5.0;" x1="119" x2="119" y1="40.2969" y2="316.2266"/><line style="stroke:#A80036;stroke-width:1.0;stroke-dasharray:5.0,5.0;" x1="256" x2="256" y1="40.2969" y2="316.2266"/><line style="stroke:#A80036;stroke-width:1.0;stroke-dasharray:5.0,5.0;" x1="374.5" x2="374.5" y1="40.2969" y2="316.2266"/><rect fill="#FEFECE" filter="url(#fg5oc4u2nh7wj)" height="30.2969" style="stroke:#A80036;stroke-width:1.5;" width="78" x="78" y="5"/><text fill="#000000" font-family="sans-serif" font-size="14" lengthAdjust="spacing" textLength="64" x="85" y="24.9951">Publisher</text><rect fill="#FEFECE" filter="url(#fg5oc4u2nh7wj)" height="30.2969" style="stroke:#A80036;stroke-width:1.5;" width="78" x="78" y="315.2266"/><text fill="#000000" font-family="sans-serif" font-size="14" lengthAdjust="spacing" textLength="64" x="85" y="335.2217">Publisher</text><rect fill="#FEFECE" filter="url(#fg5oc4u2nh7wj)" height="30.2969" style="stroke:#A80036;stroke-width:1.5;" width="60" x="224" y="5"/><text fill="#000000" font-family="sans-serif" font-size="14" lengthAdjust="spacing" textLength="46" x="231" y="24.9951">Broker</text><rect fill="#FEFECE" filter="url(#fg5oc4u2nh7wj)" height="30.2969" style="stroke:#A80036;stroke-width:1.5;" width="60" x="224" y="315.2266"/><text fill="#000000" font-family="sans-serif" font-size="14" lengthAdjust="spacing" textLength="46" x="231" y="335.2217">Broker</text><rect fill="#FEFECE" filter="url(#fg5oc4u2nh7wj)" height="30.2969" style="stroke:#A80036;stroke-width:1.5;" width="53" x="346.5" y="5"/><text fill="#000000" font-family="sans-serif" font-size="14" lengthAdjust="spacing" textLength="39" x="353.5" y="24.9951">Client</text><rect fill="#FEFECE" filter="url(#fg5oc4u2nh7wj)" height="30.2969" style="stroke:#A80036;stroke-width:1.5;" width="53" x="346.5" y="315.2266"/><text fill="#000000" font-family="sans-serif" font-size="14" lengthAdjust="spacing" textLength="39" x="353.5" y="335.2217">Client</text><line style="stroke:#A80036;stroke-width:1.0;" x1="119" x2="161" y1="71.4297" y2="71.4297"/><line style="stroke:#A80036;stroke-width:1.0;" x1="161" x2="161" y1="71.4297" y2="84.4297"/><line style="stroke:#A80036;stroke-width:1.0;" x1="120" x2="161" y1="84.4297" y2="84.4297"/><polygon fill="#A80036" points="130,80.4297,120,84.4297,130,88.4297,126,84.4297" style="stroke:#A80036;stroke-width:1.0;"/><text fill="#000000" font-family="sans-serif" font-size="13" lengthAdjust="spacing" textLength="98" x="126" y="66.3638">Store message</text><polygon fill="#A80036" points="244,109.5625,254,113.5625,244,117.5625,248,113.5625" style="stroke:#A80036;stroke-width:1.0;"/><line style="stroke:#A80036;stroke-width:1.0;" x1="119" x2="250" y1="113.5625" y2="113.5625"/><text fill="#000000" font-family="sans-serif" font-size="13" lengthAdjust="spacing" textLength="113" x="126" y="108.4966">Publish (QoS = 1)</text><line style="stroke:#A80036;stroke-width:1.0;" x1="256" x2="298" y1="142.6953" y2="142.6953"/><line style="stroke:#A80036;stroke-width:1.0;" x1="298" x2="298" y1="142.6953" y2="155.6953"/><line style="stroke:#A80036;stroke-width:1.0;" x1="257" x2="298" y1="155.6953" y2="155.6953"/><polygon fill="#A80036" points="267,151.6953,257,155.6953,267,159.6953,263,155.6953" style="stroke:#A80036;stroke-width:1.0;"/><text fill="#000000" font-family="sans-serif" font-size="13" lengthAdjust="spacing" textLength="98" x="263" y="137.6294">Store message</text><polygon fill="#A80036" points="363,180.8281,373,184.8281,363,188.8281,367,184.8281" style="stroke:#A80036;stroke-width:1.0;"/><line style="stroke:#A80036;stroke-width:1.0;" x1="256" x2="369" y1="184.8281" y2="184.8281"/><text fill="#000000" font-family="sans-serif" font-size="13" lengthAdjust="spacing" textLength="45" x="263" y="179.7622">Publish</text><line style="stroke:#A80036;stroke-width:1.0;" x1="256" x2="298" y1="213.9609" y2="213.9609"/><line style="stroke:#A80036;stroke-width:1.0;" x1="298" x2="298" y1="213.9609" y2="226.9609"/><line style="stroke:#A80036;stroke-width:1.0;" x1="257" x2="298" y1="226.9609" y2="226.9609"/><polygon fill="#A80036" points="267,222.9609,257,226.9609,267,230.9609,263,226.9609" style="stroke:#A80036;stroke-width:1.0;"/><text fill="#000000" font-family="sans-serif" font-size="13" lengthAdjust="spacing" textLength="105" x="263" y="208.895">Delete message</text><polygon fill="#A80036" points="130,252.0938,120,256.0938,130,260.0938,126,256.0938" style="stroke:#A80036;stroke-width:1.0;"/><line style="stroke:#A80036;stroke-width:1.0;stroke-dasharray:2.0,2.0;" x1="124" x2="255" y1="256.0938" y2="256.0938"/><text fill="#000000" font-family="sans-serif" font-size="13" lengthAdjust="spacing" textLength="46" x="136" y="251.0278">Puback</text><line style="stroke:#A80036;stroke-width:1.0;" x1="77" x2="119" y1="285.2266" y2="285.2266"/><line style="stroke:#A80036;stroke-width:1.0;" x1="77" x2="77" y1="285.2266" y2="298.2266"/><line style="stroke:#A80036;stroke-width:1.0;" x1="77" x2="118" y1="298.2266" y2="298.2266"/><polygon fill="#A80036" points="110,294.2266,120,298.2266,110,302.2266,114,298.2266" style="stroke:#A80036;stroke-width:1.0;"/><text fill="#000000" font-family="sans-serif" font-size="13" lengthAdjust="spacing" textLength="105" x="14" y="280.1606">Delete message</text><!--MD5=[b9155311bde74fd2a7b337e378209238]
@startuml
Publisher -> Publisher : Store message
Publisher -> Broker : Publish (QoS = 1)
Broker -> Broker : Store message
Broker -> Client : Publish
Broker -> Broker : Delete message
Publisher <- - Broker : Puback
Publisher <- Publisher : Delete message
@enduml

PlantUML version 1.2021.7(Sun May 23 12:40:07 UTC 2021)
(GPL source distribution)
Java Runtime: OpenJDK Runtime Environment
JVM: OpenJDK 64-Bit Server VM
Default Encoding: UTF-8
Language: en
Country: null
--></g></svg>