<?xml version="1.0" encoding="UTF-8" standalone="no"?><svg xmlns="http://www.w3.org/2000/svg" xmlns:xlink="http://www.w3.org/1999/xlink" contentScriptType="application/ecmascript" contentStyleType="text/css" height="417px" preserveAspectRatio="none" style="width:413px;height:417px;background:#FFFFFF;" version="1.1" viewBox="0 0 413 417" width="413px" zoomAndPan="magnify"><defs><filter height="300%" id="f14daw6ail9n6n" width="300%" x="-1" y="-1"><feGaussianBlur result="blurOut" stdDeviation="2.0"/><feColorMatrix in="blurOut" result="blurOut2" type="matrix" values="0 0 0 0 0 0 0 0 0 0 0 0 0 0 0 0 0 0 .4 0"/><feOffset dx="4.0" dy="4.0" in="blurOut2" result="blurOut3"/><feBlend in="SourceGraphic" in2="blurOut3" mode="normal"/></filter></defs><g><line style="stroke:#A80036;stroke-width:1.0;stroke-dasharray:5.0,5.0;" x1="119" x2="119" y1="40.2969" y2="374.4922"/><line style="stroke:#A80036;stroke-width:1.0;stroke-dasharray:5.0,5.0;" x1="256" x2="256" y1="40.2969" y2="374.4922"/><line style="stroke:#A80036;stroke-width:1.0;stroke-dasharray:5.0,5.0;" x1="374.5" x2="374.5" y1="40.2969" y2="374.4922"/><rect fill="#FEFECE" filter="url(#f14daw6ail9n6n)" height="30.2969" style="stroke:#A80036;stroke-width:1.5;" width="78" x="78" y="5"/><text fill="#000000" font-family="sans-serif" font-size="14" lengthAdjust="spacing" textLength="64" x="85" y="24.9951">Publisher</text><rect fill="#FEFECE" filter="url(#f14daw6ail9n6n)" height="30.2969" style="stroke:#A80036;stroke-width:1.5;" width="78" x="78" y="373.4922"/><text fill="#000000" font-family="sans-serif" font-size="14" lengthAdjust="spacing" textLength="64" x="85" y="393.4873">Publisher</text><rect fill="#FEFECE" filter="url(#f14daw6ail9n6n)" height="30.2969" style="stroke:#A80036;stroke-width:1.5;" width="60" x="224" y="5"/><text fill="#000000" font-family="sans-serif" font-size="14" lengthAdjust="spacing" textLength="46" x="231" y="24.9951">Broker</text><rect fill="#FEFECE" filter="url(#f14daw6ail9n6n)" height="30.2969" style="stroke:#A80036;stroke-width:1.5;" width="60" x="224" y="373.4922"/><text fill="#000000" font-family="sans-serif" font-size="14" lengthAdjust="spacing" textLength="46" x="231" y="393.4873">Broker</text><rect fill="#FEFECE" filter="url(#f14daw6ail9n6n)" height="30.2969" style="stroke:#A80036;stroke-width:1.5;" width="53" x="346.5" y="5"/><text fill="#000000" font-family="sans-serif" font-size="14" lengthAdjust="spacing" textLength="39" x="353.5" y="24.9951">Client</text><rect fill="#FEFECE" filter="url(#f14daw6ail9n6n)" height="30.2969" style="stroke:#A80036;stroke-width:1.5;" width="53" x="346.5" y="373.4922"/><text fill="#000000" font-family="sans-serif" font-size="14" lengthAdjust="spacing" textLength="39" x="353.5" y="393.4873">Client</text><line style="stroke:#A80036;stroke-width:1.0;" x1="119" x2="161" y1="71.4297" y2="71.4297"/><line style="stroke:#A80036;stroke-width:1.0;" x1="161" x2="161" y1="71.4297" y2="84.4297"/><line style="stroke:#A80036;stroke-width:1.0;" x1="120" x2="161" y1="84.4297" y2="84.4297"/><polygon fill="#A80036" points="130,80.4297,120,84.4297,130,88.4297,126,84.4297" style="stroke:#A80036;stroke-width:1.0;"/><text fill="#000000" font-family="sans-serif" font-size="13" lengthAdjust="spacing" textLength="98" x="126" y="66.3638">Store message</text><polygon fill="#A80036" points="244,109.5625,254,113.5625,244,117.5625,248,113.5625" style="stroke:#A80036;stroke-width:1.0;"/><line style="stroke:#A80036;stroke-width:1.0;" x1="119" x2="250" y1="113.5625" y2="113.5625"/><text fill="#000000" font-family="sans-serif" font-size="13" lengthAdjust="spacing" textLength="113" x="126" y="108.4966">Publish (QoS = 1)</text><line style="stroke:#A80036;stroke-width:1.0;" x1="256" x2="298" y1="142.6953" y2="142.6953"/><line style="stroke:#A80036;stroke-width:1.0;" x1="298" x2="298" y1="142.6953" y2="155.6953"/><line style="stroke:#A80036;stroke-width:1.0;" x1="257" x2="298" y1="155.6953" y2="155.6953"/><polygon fill="#A80036" points="267,151.6953,257,155.6953,267,159.6953,263,155.6953" style="stroke:#A80036;stroke-width:1.0;"/><text fill="#000000" font-family="sans-serif" font-size="13" lengthAdjust="spacing" textLength="98" x="263" y="137.6294">Store message</text><polygon fill="#A80036" points="363,180.8281,373,184.8281,363,188.8281,367,184.8281" style="stroke:#A80036;stroke-width:1.0;"/><line style="stroke:#A80036;stroke-width:1.0;" x1="256" x2="369" y1="184.8281" y2="184.8281"/><text fill="#000000" font-family="sans-serif" font-size="13" lengthAdjust="spacing" textLength="45" x="263" y="179.7622">Publish</text><polygon fill="#A80036" points="130,209.9609,120,213.9609,130,217.9609,126,213.9609" style="stroke:#A80036;stroke-width:1.0;"/><line style="stroke:#A80036;stroke-width:1.0;stroke-dasharray:2.0,2.0;" x1="124" x2="255" y1="213.9609" y2="213.9609"/><text fill="#000000" font-family="sans-serif" font-size="13" lengthAdjust="spacing" textLength="46" x="136" y="208.895">Puback</text><polygon fill="#A80036" points="244,239.0938,254,243.0938,244,247.0938,248,243.0938" style="stroke:#A80036;stroke-width:1.0;"/><line style="stroke:#A80036;stroke-width:1.0;" x1="119" x2="250" y1="243.0938" y2="243.0938"/><text fill="#000000" font-family="sans-serif" font-size="13" lengthAdjust="spacing" textLength="44" x="126" y="238.0278">Pubrec</text><line style="stroke:#A80036;stroke-width:1.0;" x1="256" x2="298" y1="272.2266" y2="272.2266"/><line style="stroke:#A80036;stroke-width:1.0;" x1="298" x2="298" y1="272.2266" y2="285.2266"/><line style="stroke:#A80036;stroke-width:1.0;" x1="257" x2="298" y1="285.2266" y2="285.2266"/><polygon fill="#A80036" points="267,281.2266,257,285.2266,267,289.2266,263,285.2266" style="stroke:#A80036;stroke-width:1.0;"/><text fill="#000000" font-family="sans-serif" font-size="13" lengthAdjust="spacing" textLength="105" x="263" y="267.1606">Delete message</text><polygon fill="#A80036" points="130,310.3594,120,314.3594,130,318.3594,126,314.3594" style="stroke:#A80036;stroke-width:1.0;"/><line style="stroke:#A80036;stroke-width:1.0;stroke-dasharray:2.0,2.0;" x1="124" x2="255" y1="314.3594" y2="314.3594"/><text fill="#000000" font-family="sans-serif" font-size="13" lengthAdjust="spacing" textLength="60" x="136" y="309.2935">Pubcomp</text><line style="stroke:#A80036;stroke-width:1.0;" x1="77" x2="119" y1="343.4922" y2="343.4922"/><line style="stroke:#A80036;stroke-width:1.0;" x1="77" x2="77" y1="343.4922" y2="356.4922"/><line style="stroke:#A80036;stroke-width:1.0;" x1="77" x2="118" y1="356.4922" y2="356.4922"/><polygon fill="#A80036" points="110,352.4922,120,356.4922,110,360.4922,114,356.4922" style="stroke:#A80036;stroke-width:1.0;"/><text fill="#000000" font-family="sans-serif" font-size="13" lengthAdjust="spacing" textLength="105" x="14" y="338.4263">Delete message</text><!--MD5=[ee9b7afa36ccd68494eb458a494bde2b]
@startuml
Publisher -> Publisher : Store message
Publisher -> Broker : Publish (QoS = 1)
Broker -> Broker : Store message
Broker -> Client : Publish
Publisher <- - Broker : Puback
Publisher -> Broker : Pubrec
Broker -> Broker : Delete message
Publisher <- - Broker : Pubcomp
Publisher <- Publisher : Delete message
@enduml

PlantUML version 1.2021.7(Sun May 23 12:40:07 UTC 2021)
(GPL source distribution)
Java Runtime: OpenJDK Runtime Environment
JVM: OpenJDK 64-Bit Server VM
Default Encoding: UTF-8
Language: en
Country: null
--></g></svg>